<svg width="30.000000" height="28.945312" viewBox="0.000000 -54.667969 30.000000 28.945312" xmlns="http://www.w3.org/2000/svg"><path d="M4.277344 -33.164062C5.214844 -33.046875 5.986328 -32.636719 6.591797 -31.933594C7.197266 -31.230469 7.500000 -30.410156 7.500000 -29.472656C7.500000 -28.457031 7.128906 -27.578125 6.386719 -26.835938C5.644531 -26.093750 4.765625 -25.722656 3.750000 -25.722656C2.734375 -25.722656 1.855469 -26.093750 1.113281 -26.835938C0.371094 -27.578125 0.000000 -28.457031 0.000000 -29.472656C0.000000 -30.410156 0.302734 -31.230469 0.908203 -31.933594C1.513672 -32.636719 2.285156 -33.046875 3.222656 -33.164062L3.222656 -54.140625C3.222656 -54.492188 3.398438 -54.667969 3.750000 -54.667969C4.101562 -54.667969 4.277344 -54.492188 4.277344 -54.140625ZM3.750000 -26.777344C4.492188 -26.777344 5.126953 -27.041016 5.654297 -27.568359C6.181641 -28.095703 6.445312 -28.730469 6.445312 -29.472656C6.445312 -30.214844 6.181641 -30.849609 5.654297 -31.376953C5.126953 -31.904297 4.492188 -32.167969 3.750000 -32.167969C3.007812 -32.167969 2.373047 -31.904297 1.845703 -31.376953C1.318359 -30.849609 1.054688 -30.214844 1.054688 -29.472656C1.054688 -28.730469 1.318359 -28.095703 1.845703 -27.568359C2.373047 -27.041016 3.007812 -26.777344 3.750000 -26.777344ZM15.527344 -44.121094C16.464844 -43.964844 17.236328 -43.525391 17.841797 -42.802734C18.447266 -42.080078 18.750000 -41.250000 18.750000 -40.312500C18.750000 -39.375000 18.447266 -38.544922 17.841797 -37.822266C17.236328 -37.099609 16.464844 -36.660156 15.527344 -36.503906L15.527344 -26.250000C15.527344 -25.898438 15.351562 -25.722656 15.000000 -25.722656C14.648438 -25.722656 14.472656 -25.898438 14.472656 -26.250000L14.472656 -36.445312C13.496094 -36.562500 12.675781 -36.992188 12.011719 -37.734375C11.347656 -38.476562 11.015625 -39.335938 11.015625 -40.312500C11.015625 -41.289062 11.347656 -42.148438 12.011719 -42.890625C12.675781 -43.632812 13.496094 -44.042969 14.472656 -44.121094L14.472656 -54.140625C14.472656 -54.492188 14.648438 -54.667969 15.000000 -54.667969C15.351562 -54.667969 15.527344 -54.492188 15.527344 -54.140625ZM14.882812 -37.500000C15.664062 -37.500000 16.328125 -37.773438 16.875000 -38.320312C17.421875 -38.867188 17.695312 -39.531250 17.695312 -40.312500C17.695312 -41.093750 17.421875 -41.748047 16.875000 -42.275391C16.328125 -42.802734 15.664062 -43.066406 14.882812 -43.066406C14.101562 -43.066406 13.447266 -42.802734 12.919922 -42.275391C12.392578 -41.748047 12.128906 -41.093750 12.128906 -40.312500C12.128906 -39.531250 12.392578 -38.867188 12.919922 -38.320312C13.447266 -37.773438 14.101562 -37.500000 14.882812 -37.500000ZM30.000000 -50.917969C30.000000 -49.980469 29.697266 -49.160156 29.091797 -48.457031C28.486328 -47.753906 27.714844 -47.343750 26.777344 -47.226562L26.777344 -26.250000C26.777344 -25.898438 26.601562 -25.722656 26.250000 -25.722656C25.898438 -25.722656 25.722656 -25.898438 25.722656 -26.250000L25.722656 -47.226562C24.785156 -47.343750 24.013672 -47.753906 23.408203 -48.457031C22.802734 -49.160156 22.500000 -49.980469 22.500000 -50.917969C22.500000 -51.933594 22.871094 -52.812500 23.613281 -53.554688C24.355469 -54.296875 25.234375 -54.667969 26.250000 -54.667969C27.265625 -54.667969 28.144531 -54.296875 28.886719 -53.554688C29.628906 -52.812500 30.000000 -51.933594 30.000000 -50.917969ZM26.250000 -48.222656C26.992188 -48.222656 27.626953 -48.486328 28.154297 -49.013672C28.681641 -49.541016 28.945312 -50.175781 28.945312 -50.917969C28.945312 -51.660156 28.681641 -52.294922 28.154297 -52.822266C27.626953 -53.349609 26.992188 -53.613281 26.250000 -53.613281C25.507812 -53.613281 24.873047 -53.349609 24.345703 -52.822266C23.818359 -52.294922 23.554688 -51.660156 23.554688 -50.917969C23.554688 -50.175781 23.818359 -49.541016 24.345703 -49.013672C24.873047 -48.486328 25.507812 -48.222656 26.250000 -48.222656ZM26.250000 -48.222656"></path></svg>