<svg width="30.039062" height="19.921875" viewBox="-0.039062 -41.132812 30.039062 19.921875" xmlns="http://www.w3.org/2000/svg"><path d="M30.000000 -40.605469L30.000000 -40.546875C30.000000 -40.507812 29.980469 -40.488281 29.941406 -40.488281L22.968750 -21.503906C22.929688 -21.347656 22.832031 -21.250000 22.675781 -21.210938C22.636719 -21.210938 22.578125 -21.210938 22.500000 -21.210938C22.421875 -21.210938 22.343750 -21.230469 22.265625 -21.269531L16.464844 -25.019531L10.898438 -21.328125C10.820312 -21.250000 10.703125 -21.210938 10.546875 -21.210938L10.546875 -21.210938C10.468750 -21.210938 10.410156 -21.210938 10.371094 -21.210938C10.371094 -21.210938 10.351562 -21.210938 10.312500 -21.210938C10.312500 -21.250000 10.292969 -21.269531 10.253906 -21.269531L10.195312 -21.269531C10.195312 -21.308594 10.175781 -21.347656 10.136719 -21.386719L10.078125 -21.386719L10.078125 -21.445312C10.078125 -21.484375 10.058594 -21.523438 10.019531 -21.562500C10.019531 -21.562500 10.019531 -21.582031 10.019531 -21.621094C10.019531 -21.660156 10.019531 -21.699219 10.019531 -21.738281L8.554688 -29.824219L0.292969 -34.218750C0.058594 -34.335938 -0.039062 -34.511719 0.000000 -34.746094C0.039062 -34.980469 0.175781 -35.117188 0.410156 -35.156250L29.414062 -41.132812C29.453125 -41.132812 29.472656 -41.132812 29.472656 -41.132812C29.511719 -41.132812 29.550781 -41.132812 29.589844 -41.132812C29.628906 -41.132812 29.648438 -41.132812 29.648438 -41.132812C29.687500 -41.132812 29.726562 -41.113281 29.765625 -41.074219C29.804688 -41.074219 29.824219 -41.074219 29.824219 -41.074219C29.863281 -41.035156 29.902344 -40.996094 29.941406 -40.957031L29.941406 -40.898438C29.980469 -40.859375 30.000000 -40.820312 30.000000 -40.781250L30.000000 -40.722656C30.000000 -40.683594 30.000000 -40.654297 30.000000 -40.634766C30.000000 -40.615234 30.000000 -40.605469 30.000000 -40.605469ZM24.199219 -37.382812L9.550781 -29.882812L10.664062 -23.847656L12.070312 -28.300781L12.070312 -28.359375C12.070312 -28.398438 12.070312 -28.417969 12.070312 -28.417969C12.109375 -28.457031 12.128906 -28.476562 12.128906 -28.476562C12.128906 -28.476562 12.128906 -28.496094 12.128906 -28.535156L12.187500 -28.535156C12.187500 -28.574219 12.207031 -28.593750 12.246094 -28.593750ZM11.425781 -22.910156L13.476562 -24.257812L15.527344 -25.605469L14.941406 -26.015625L12.832031 -27.421875ZM26.015625 -39.433594L1.992188 -34.453125L9.023438 -30.761719ZM22.265625 -22.441406L28.476562 -39.257812L13.417969 -28.183594L14.589844 -27.421875ZM22.265625 -22.441406"></path></svg>